<svg xmlns="http://www.w3.org/2000/svg" viewBox="0 0 418 418"><path fill="currentColor" stroke="none" fill-rule="evenodd" d="M170 108H184V109H170ZM160 109H194V110H160ZM154 110H200V111H154ZM149 111H205V112H149ZM145 112H209V113H145ZM142 113H212V114H142ZM138 114H215V115H138ZM135 115H218V116H135ZM133 116H221V117H133ZM130 117H224V118H130ZM128 118H226V119H128ZM126 119H228V120H126ZM123 120H230V121H123ZM121 121H232V122H121ZM119 122H234V123H119ZM117 123H236V124H117ZM116 124H238V125H116ZM114 125H240V126H114ZM112 126H241V127H112ZM111 127H243V128H111ZM109 128H170V129H109ZM184 128H245V129H184ZM107 129H161V130H107ZM194 129H246V130H194ZM106 130H155V131H106ZM199 130H248V131H199ZM105 131H151V132H105ZM203 131H249V132H203ZM103 132H147V133H103ZM207 132H250V133H207ZM102 133H144V134H102ZM210 133H252V134H210ZM101 134H141V135H101ZM213 134H253V135H213ZM99 135H139V136H99ZM215 135H254V136H215ZM98 136H136V137H98ZM218 136H255V137H218ZM97 137H134V138H97ZM220 137H257V138H220ZM96 138H131V139H96ZM222 138H258V139H222ZM94 139H129V140H94ZM224 139H259V140H224ZM93 140H127V141H93ZM226 140H260V141H226ZM92 141H126V142H92ZM228 141H261V142H228ZM91 142H124V143H91ZM230 142H262V143H230ZM90 143H122V144H90ZM231 143H263V144H231ZM89 144H121V145H89ZM233 144H264V145H233ZM88 145H119V146H88ZM235 145H265V146H235ZM87 146H118V147H87ZM236 146H266V147H236ZM86 147H116V148H86ZM238 147H267V148H238ZM85 148H115V149H85ZM239 148H268V149H239ZM84 149H113V150H84ZM240 149H269V150H240ZM83 150H112V151H83ZM241 150H270V151H241ZM83 151H111V152H83ZM243 151H271V152H243ZM82 152H109V153H82ZM244 152H272V153H244ZM81 153H108V154H81ZM245 153H273V154H245ZM80 154H107V155H80ZM246 154H274V155H246ZM79 155H106V156H79ZM247 155H274V156H247ZM78 156H105V157H78ZM249 156H275V157H249ZM78 157H104V158H78ZM250 157H276V158H250ZM77 158H103V159H77ZM251 158H277V159H251ZM76 159H102V160H76ZM252 159H277V160H252ZM75 160H101V161H75ZM253 160H278V161H253ZM75 161H100V162H75ZM254 161H279V162H254ZM74 162H99V163H74ZM73 163H98V164H73ZM255 162H280V164H255ZM73 164H97V165H73ZM256 164H281V165H256ZM72 165H96V166H72ZM166 165H187V166H166ZM257 165H282V166H257ZM162 166H191V167H162ZM258 166H282V167H258ZM71 166H95V168H71ZM160 167H193V168H160ZM259 167H283V168H259ZM70 168H94V169H70ZM157 168H196V169H157ZM260 168H283V169H260ZM69 169H93V170H69ZM155 169H198V170H155ZM260 169H284V170H260ZM69 170H92V171H69ZM153 170H200V171H153ZM261 170H285V171H261ZM68 171H92V172H68ZM151 171H201V172H151ZM262 171H285V172H262ZM68 172H91V173H68ZM150 172H203V173H150ZM67 173H90V174H67ZM148 173H204V174H148ZM263 172H286V174H263ZM67 174H89V175H67ZM147 174H206V175H147ZM264 174H287V175H264ZM66 175H89V176H66ZM146 175H207V176H146ZM66 176H88V177H66ZM145 176H208V177H145ZM265 175H288V177H265ZM65 177H87V178H65ZM144 177H209V178H144ZM266 177H289V178H266ZM64 178H87V179H64ZM143 178H210V179H143ZM142 179H211V180H142ZM267 178H289V180H267ZM64 179H86V181H64ZM141 180H211V181H141ZM63 181H85V182H63ZM140 181H212V182H140ZM268 180H290V182H268ZM63 182H84V183H63ZM139 182H213V183H139ZM62 183H84V184H62ZM139 183H214V184H139ZM269 182H291V184H269ZM62 184H83V185H62ZM138 184H174V185H138ZM180 184H214V185H180ZM270 184H292V185H270ZM61 185H83V186H61ZM137 185H168V186H137ZM185 185H215V186H185ZM271 185H292V186H271ZM61 186H82V187H61ZM137 186H166V187H137ZM187 186H216V187H187ZM271 186H293V187H271ZM60 187H82V188H60ZM136 187H164V188H136ZM189 187H216V188H189ZM136 188H162V189H136ZM191 188H217V189H191ZM272 187H293V189H272ZM60 188H81V190H60ZM135 189H161V190H135ZM192 189H217V190H192ZM272 189H294V190H272ZM135 190H160V191H135ZM193 190H217V191H193ZM273 190H294V191H273ZM59 190H80V192H59ZM134 191H159V192H134ZM194 191H218V192H194ZM273 191H295V192H273ZM59 192H79V193H59ZM134 192H158V193H134ZM195 192H218V193H195ZM134 193H157V194H134ZM196 193H219V194H196ZM274 192H295V194H274ZM58 193H79V195H58ZM58 195H78V196H58ZM133 194H156V196H133ZM197 194H219V196H197ZM133 196H155V197H133ZM198 196H219V197H198ZM275 194H296V197H275ZM57 196H78V198H57ZM132 197H155V198H132ZM198 197H220V198H198ZM57 198H77V199H57ZM276 197H297V200H276ZM56 199H77V201H56ZM132 198H154V201H132ZM277 200H297V201H277ZM56 201H76V203H56ZM199 198H220V203H199ZM277 201H298V203H277ZM55 203H76V204H55ZM278 203H298V205H278ZM278 205H299V206H278ZM55 204H75V207H55ZM132 201H153V207H132ZM200 203H220V207H200ZM55 207H74V208H55ZM133 207H152V209H133ZM134 209H151V210H134ZM279 206H299V210H279ZM135 210H150V211H135ZM54 208H74V212H54ZM136 211H149V212H136ZM199 207H220V212H199ZM54 212H73V213H54ZM137 212H148V213H137ZM139 213H145V214H139ZM198 212H220V214H198ZM198 214H219V215H198ZM280 210H300V215H280ZM197 215H219V216H197ZM53 213H73V217H53ZM196 216H219V217H196ZM196 217H218V218H196ZM195 218H218V219H195ZM53 217H72V220H53ZM194 219H218V220H194ZM193 220H217V221H193ZM192 221H217V223H192ZM281 215H301V223H281ZM190 223H216V224H190ZM282 223H301V224H282ZM189 224H216V225H189ZM52 220H72V226H52ZM188 225H215V226H188ZM187 226H214V227H187ZM185 227H214V228H185ZM184 228H213V229H184ZM183 229H212V230H183ZM182 230H212V231H182ZM180 231H211V232H180ZM179 232H210V233H179ZM178 233H209V234H178ZM177 234H208V235H177ZM176 235H207V236H176ZM175 236H206V237H175ZM174 237H205V238H174ZM173 238H204V239H173ZM172 239H203V240H172ZM171 240H201V241H171ZM52 226H71V242H52ZM170 241H200V242H170ZM170 242H199V243H170ZM169 243H197V244H169ZM169 244H196V245H169ZM282 224H302V245H282ZM168 245H195V246H168ZM282 245H301V246H282ZM167 246H193V247H167ZM167 247H192V248H167ZM52 242H72V249H52ZM167 248H191V249H167ZM166 249H190V251H166ZM53 249H72V252H53ZM166 251H189V252H166ZM281 246H301V253H281ZM165 252H188V254H165ZM281 253H300V254H281ZM53 252H73V256H53ZM165 254H187V256H165ZM54 256H73V257H54ZM165 256H186V258H165ZM280 254H300V259H280ZM54 257H74V261H54ZM55 261H74V262H55ZM164 258H186V262H164ZM279 259H299V263H279ZM165 262H186V264H165ZM278 263H299V264H278ZM55 262H75V265H55ZM165 264H185V265H165ZM55 265H76V266H55ZM166 265H185V266H166ZM278 264H298V266H278ZM166 266H184V267H166ZM56 266H76V268H56ZM167 267H183V268H167ZM277 266H298V268H277ZM168 268H182V269H168ZM277 268H297V269H277ZM56 268H77V270H56ZM170 269H181V270H170ZM57 270H77V271H57ZM172 270H178V271H172ZM276 269H297V272H276ZM57 271H78V273H57ZM58 273H78V274H58ZM275 272H296V275H275ZM58 274H79V276H58ZM59 276H79V277H59ZM274 275H295V277H274ZM59 277H80V279H59ZM273 277H294V280H273ZM60 279H81V281H60ZM60 281H82V282H60ZM172 281H180V282H172ZM272 280H293V282H272ZM61 282H82V283H61ZM170 282H183V283H170ZM271 282H293V283H271ZM61 283H83V284H61ZM168 283H184V284H168ZM271 283H292V284H271ZM62 284H83V285H62ZM167 284H186V285H167ZM270 284H292V285H270ZM62 285H84V286H62ZM166 285H187V286H166ZM270 285H291V286H270ZM63 286H84V287H63ZM165 286H188V287H165ZM269 286H291V287H269ZM63 287H85V288H63ZM164 287H188V288H164ZM269 287H290V288H269ZM63 288H86V289H63ZM164 288H189V289H164ZM268 288H290V289H268ZM64 289H86V290H64ZM267 289H290V290H267ZM64 290H87V291H64ZM163 289H190V291H163ZM267 290H289V291H267ZM65 291H87V292H65ZM162 291H190V292H162ZM266 291H289V292H266ZM65 292H88V293H65ZM266 292H288V293H266ZM66 293H88V294H66ZM265 293H288V294H265ZM66 294H89V295H66ZM264 294H287V295H264ZM67 295H90V296H67ZM264 295H286V296H264ZM68 296H90V297H68ZM263 296H286V297H263ZM68 297H91V298H68ZM262 297H285V298H262ZM69 298H92V299H69ZM162 292H191V299H162ZM261 298H285V299H261ZM69 299H93V300H69ZM162 299H190V300H162ZM261 299H284V300H261ZM163 300H190V301H163ZM260 300H284V301H260ZM70 300H94V302H70ZM163 301H189V302H163ZM259 301H283V302H259ZM71 302H95V303H71ZM164 302H189V303H164ZM258 302H282V303H258ZM72 303H96V304H72ZM164 303H188V304H164ZM257 303H282V304H257ZM72 304H97V305H72ZM165 304H188V305H165ZM257 304H281V305H257ZM73 305H98V306H73ZM166 305H187V306H166ZM256 305H280V306H256ZM167 306H186V307H167ZM255 306H280V307H255ZM74 306H99V308H74ZM168 307H184V308H168ZM254 307H279V308H254ZM75 308H100V309H75ZM170 308H183V309H170ZM253 308H278V309H253ZM76 309H101V310H76ZM173 309H180V310H173ZM252 309H277V310H252ZM77 310H102V311H77ZM251 310H277V311H251ZM77 311H103V312H77ZM250 311H276V312H250ZM78 312H104V313H78ZM249 312H275V313H249ZM79 313H106V314H79ZM248 313H274V314H248ZM80 314H107V315H80ZM247 314H274V315H247ZM81 315H108V316H81ZM246 315H273V316H246ZM81 316H109V317H81ZM245 316H272V317H245ZM82 317H110V318H82ZM243 317H271V318H243ZM83 318H112V319H83ZM242 318H270V319H242ZM84 319H113V320H84ZM241 319H269V320H241ZM85 320H114V321H85ZM240 320H269V321H240ZM86 321H116V322H86ZM238 321H268V322H238ZM87 322H117V323H87ZM237 322H267V323H237ZM88 323H118V324H88ZM235 323H266V324H235ZM89 324H120V325H89ZM234 324H265V325H234ZM90 325H122V326H90ZM232 325H264V326H232ZM91 326H123V327H91ZM230 326H263V327H230ZM92 327H125V328H92ZM229 327H262V328H229ZM93 328H127V329H93ZM227 328H260V329H227ZM94 329H129V330H94ZM225 329H259V330H225ZM95 330H130V331H95ZM223 330H258V331H223ZM97 331H133V332H97ZM221 331H257V332H221ZM98 332H135V333H98ZM219 332H256V333H219ZM99 333H137V334H99ZM217 333H255V334H217ZM100 334H140V335H100ZM214 334H253V335H214ZM102 335H142V336H102ZM211 335H252V336H211ZM103 336H145V337H103ZM208 336H251V337H208ZM104 337H149V338H104ZM205 337H249V338H205ZM106 338H153V339H106ZM201 338H248V339H201ZM107 339H158V340H107ZM196 339H247V340H196ZM109 340H164V341H109ZM190 340H245V341H190ZM110 341H243V342H110ZM112 342H242V343H112ZM113 343H240V344H113ZM115 344H239V345H115ZM117 345H237V346H117ZM119 346H235V347H119ZM121 347H233V348H121ZM123 348H231V349H123ZM125 349H229V350H125ZM127 350H227V351H127ZM130 351H224V352H130ZM132 352H222V353H132ZM135 353H219V354H135ZM138 354H216V355H138ZM141 355H213V356H141ZM144 356H209V357H144ZM148 357H205V358H148ZM153 358H201V359H153ZM159 359H195V360H159ZM167 360H185V361H167Z"></path></svg>
