<svg xmlns="http://www.w3.org/2000/svg" viewBox="0 0 418 418"><path fill="currentColor" stroke="none" fill-rule="evenodd" d="M175 136H187V137H175ZM160 137H189V138H160ZM151 138H190V139H151ZM147 139H191V140H147ZM145 140H191V141H145ZM143 141H192V142H143ZM142 142H192V143H142ZM141 143H192V144H141ZM140 144H192V145H140ZM139 145H192V146H139ZM138 146H192V147H138ZM137 147H191V148H137ZM136 148H191V149H136ZM136 149H190V150H136ZM135 150H189V151H135ZM135 151H188V152H135ZM134 152H183V153H134ZM134 153H168V154H134ZM134 154H155V155H134ZM133 155H152V156H133ZM133 156H151V157H133ZM133 157H150V159H133ZM133 159H149V164H133ZM245 164H296V165H245ZM133 164H150V166H133ZM243 165H298V166H243ZM133 166H151V167H133ZM242 166H299V167H242ZM133 167H152V168H133ZM134 168H155V169H134ZM241 167H300V169H241ZM134 169H170V170H134ZM134 170H172V171H134ZM135 171H173V172H135ZM135 172H174V173H135ZM136 173H174V175H136ZM240 169H301V175H240ZM137 175H175V176H137ZM138 176H175V177H138ZM241 175H300V177H241ZM139 177H175V178H139ZM242 177H299V178H242ZM140 178H174V179H140ZM243 178H298V179H243ZM141 179H174V180H141ZM245 179H296V180H245ZM142 180H174V181H142ZM261 180H279V181H261ZM144 181H173V182H144ZM146 182H173V183H146ZM260 181H278V183H260ZM148 183H172V184H148ZM259 183H278V184H259ZM152 184H172V185H152ZM259 184H277V185H259ZM154 185H172V186H154ZM258 185H277V186H258ZM258 186H276V187H258ZM153 186H171V188H153ZM257 187H276V188H257ZM257 188H275V189H257ZM152 188H170V190H152ZM256 189H275V190H256ZM151 190H274V192H151ZM150 192H273V194H150ZM150 194H272V195H150ZM149 195H272V196H149ZM149 196H271V197H149ZM148 197H271V198H148ZM148 198H270V199H148ZM147 199H270V200H147ZM147 200H269V201H147ZM146 201H269V202H146ZM146 202H270V203H146ZM145 203H270V204H145ZM145 204H271V206H145ZM144 206H168V207H144ZM248 206H272V207H248ZM144 207H169V208H144ZM248 207H273V208H248ZM143 208H170V209H143ZM247 208H273V209H247ZM143 209H171V210H143ZM247 209H274V210H247ZM142 210H171V211H142ZM246 210H274V211H246ZM142 211H172V212H142ZM246 211H275V212H246ZM142 212H173V213H142ZM141 213H174V214H141ZM245 212H276V214H245ZM141 214H175V215H141ZM140 215H175V216H140ZM244 214H277V216H244ZM140 216H176V217H140ZM243 216H278V217H243ZM139 217H177V218H139ZM243 217H279V218H243ZM139 218H178V219H139ZM242 218H279V219H242ZM242 219H260V220H242ZM138 219H156V221H138ZM158 219H179V221H158ZM261 219H280V221H261ZM111 221H124V222H111ZM159 221H180V222H159ZM241 220H259V222H241ZM262 221H281V222H262ZM305 221H318V222H305ZM104 222H131V223H104ZM137 221H155V223H137ZM160 222H181V223H160ZM298 222H324V223H298ZM100 223H135V224H100ZM136 223H155V224H136ZM161 223H182V224H161ZM240 222H258V224H240ZM263 222H282V224H263ZM294 223H329V224H294ZM97 224H154V225H97ZM291 224H332V225H291ZM94 225H154V226H94ZM162 224H183V226H162ZM239 224H257V226H239ZM264 224H283V226H264ZM288 225H335V226H288ZM92 226H153V227H92ZM163 226H184V227H163ZM265 226H284V227H265ZM286 226H337V227H286ZM89 227H153V228H89ZM164 227H185V228H164ZM238 226H256V228H238ZM266 227H339V228H266ZM88 228H152V229H88ZM165 228H186V229H165ZM266 228H341V229H266ZM86 229H152V230H86ZM166 229H187V230H166ZM237 228H255V230H237ZM267 229H343V230H267ZM84 230H151V231H84ZM166 230H188V231H166ZM267 230H344V231H267ZM83 231H152V232H83ZM167 231H188V232H167ZM236 230H254V232H236ZM268 231H346V232H268ZM81 232H153V233H81ZM168 232H189V233H168ZM269 232H347V233H269ZM80 233H155V234H80ZM169 233H190V234H169ZM235 232H253V234H235ZM269 233H349V234H269ZM78 234H156V235H78ZM170 234H191V235H170ZM270 234H350V235H270ZM77 235H157V236H77ZM171 235H192V236H171ZM234 234H252V236H234ZM271 235H351V236H271ZM76 236H159V237H76ZM172 236H192V237H172ZM270 236H353V237H270ZM75 237H115V238H75ZM121 237H160V238H121ZM172 237H193V238H172ZM233 236H251V238H233ZM269 237H354V238H269ZM74 238H108V239H74ZM127 238H161V239H127ZM173 238H194V239H173ZM268 238H302V239H268ZM321 238H355V239H321ZM73 239H104V240H73ZM129 239H162V240H129ZM174 239H195V240H174ZM232 238H250V240H232ZM267 239H298V240H267ZM325 239H356V240H325ZM72 240H101V241H72ZM129 240H163V241H129ZM175 240H196V241H175ZM266 240H295V241H266ZM328 240H357V241H328ZM71 241H98V242H71ZM129 241H164V242H129ZM176 241H197V242H176ZM231 240H249V242H231ZM265 241H294V242H265ZM330 241H358V242H330ZM70 242H96V243H70ZM128 242H165V243H128ZM176 242H198V243H176ZM264 242H294V243H264ZM332 242H359V243H332ZM69 243H94V244H69ZM128 243H166V244H128ZM177 243H198V244H177ZM230 242H248V244H230ZM263 243H295V244H263ZM334 243H360V244H334ZM68 244H93V245H68ZM127 244H166V245H127ZM178 244H199V245H178ZM262 244H295V245H262ZM336 244H360V245H336ZM67 245H91V246H67ZM127 245H167V246H127ZM179 245H200V246H179ZM229 244H247V246H229ZM337 245H361V246H337ZM67 246H90V247H67ZM126 246H168V247H126ZM180 246H201V247H180ZM261 245H296V247H261ZM339 246H362V247H339ZM66 247H88V248H66ZM126 247H144V248H126ZM146 247H169V248H146ZM180 247H202V248H180ZM228 246H246V248H228ZM260 247H297V248H260ZM340 247H363V248H340ZM65 248H87V249H65ZM126 248H143V249H126ZM147 248H169V249H147ZM181 248H202V249H181ZM259 248H297V249H259ZM341 248H363V249H341ZM64 249H86V250H64ZM125 249H143V250H125ZM148 249H170V250H148ZM182 249H203V250H182ZM227 248H245V250H227ZM259 249H298V250H259ZM342 249H364V250H342ZM64 250H85V251H64ZM125 250H142V251H125ZM149 250H171V251H149ZM183 250H204V251H183ZM258 250H279V251H258ZM343 250H365V251H343ZM63 251H84V252H63ZM150 251H171V252H150ZM184 251H205V252H184ZM226 250H244V252H226ZM257 251H278V252H257ZM280 250H299V252H280ZM344 251H365V252H344ZM63 252H83V253H63ZM124 251H142V253H124ZM151 252H172V253H151ZM184 252H206V253H184ZM257 252H277V253H257ZM281 252H300V253H281ZM345 252H366V253H345ZM62 253H82V254H62ZM152 253H172V254H152ZM185 253H207V254H185ZM225 252H243V254H225ZM256 253H276V254H256ZM346 253H366V254H346ZM62 254H81V255H62ZM123 253H141V255H123ZM153 254H173V255H153ZM186 254H207V255H186ZM256 254H275V255H256ZM282 253H301V255H282ZM347 254H367V255H347ZM61 255H81V256H61ZM154 255H173V256H154ZM187 255H208V256H187ZM224 254H242V256H224ZM255 255H275V256H255ZM348 255H367V256H348ZM61 256H80V257H61ZM122 255H140V257H122ZM155 256H174V257H155ZM188 256H209V257H188ZM255 256H274V257H255ZM283 255H302V257H283ZM60 257H79V258H60ZM122 257H139V258H122ZM156 257H174V258H156ZM189 257H210V258H189ZM223 256H241V258H223ZM254 257H273V258H254ZM284 257H303V258H284ZM349 256H368V258H349ZM60 258H78V259H60ZM121 258H139V259H121ZM156 258H175V259H156ZM190 258H211V259H190ZM254 258H272V259H254ZM350 258H369V259H350ZM59 259H78V260H59ZM121 259H138V260H121ZM157 259H175V260H157ZM190 259H212V260H190ZM222 258H240V260H222ZM253 259H272V260H253ZM285 258H304V260H285ZM351 259H369V260H351ZM59 260H77V261H59ZM157 260H176V261H157ZM191 260H212V261H191ZM351 260H370V261H351ZM58 261H77V262H58ZM120 260H138V262H120ZM158 261H176V262H158ZM192 261H213V262H192ZM221 260H239V262H221ZM253 260H271V262H253ZM286 260H305V262H286ZM159 262H176V263H159ZM193 262H214V263H193ZM287 262H306V263H287ZM352 261H370V263H352ZM58 262H76V264H58ZM119 262H137V264H119ZM159 263H177V264H159ZM194 263H215V264H194ZM220 262H238V264H220ZM252 262H270V264H252ZM194 264H216V265H194ZM252 264H269V265H252ZM288 263H307V265H288ZM353 263H371V265H353ZM57 264H75V266H57ZM118 264H136V266H118ZM160 264H177V266H160ZM195 265H216V266H195ZM219 264H237V266H219ZM251 265H269V266H251ZM289 265H308V266H289ZM354 265H371V266H354ZM57 266H74V267H57ZM118 266H135V267H118ZM160 266H178V267H160ZM196 266H217V267H196ZM218 266H236V267H218ZM290 266H308V267H290ZM354 266H372V267H354ZM117 267H135V268H117ZM197 267H236V268H197ZM251 266H268V268H251ZM290 267H309V268H290ZM56 267H74V269H56ZM117 268H134V269H117ZM198 268H235V269H198ZM250 268H268V269H250ZM161 267H178V270H161ZM199 269H235V270H199ZM291 268H310V270H291ZM355 267H372V270H355ZM116 269H134V271H116ZM292 270H311V271H292ZM56 269H73V272H56ZM200 270H234V272H200ZM250 269H267V272H250ZM293 271H311V272H293ZM115 271H133V273H115ZM162 270H179V273H162ZM201 272H233V273H201ZM250 272H266V273H250ZM293 272H312V273H293ZM202 273H233V274H202ZM249 273H266V274H249ZM356 270H373V274H356ZM114 273H132V275H114ZM163 273H179V275H163ZM203 274H266V275H203ZM273 274H280V275H273ZM284 274H289V275H284ZM292 274H293V275H292ZM294 273H313V275H294ZM357 274H373V275H357ZM114 275H131V276H114ZM204 275H314V276H204ZM55 272H72V277H55ZM113 276H131V277H113ZM113 277H130V278H113ZM205 276H315V278H205ZM163 275H180V279H163ZM206 278H316V279H206ZM55 277H71V280H55ZM112 278H130V280H112ZM207 279H316V280H207ZM208 280H317V281H208ZM111 280H129V282H111ZM209 281H317V282H209ZM111 282H128V284H111ZM210 282H317V284H210ZM211 284H317V285H211ZM54 280H71V286H54ZM212 285H317V286H212ZM111 284H127V287H111ZM213 286H316V287H213ZM112 287H126V288H112ZM164 279H180V288H164ZM214 287H315V288H214ZM112 288H125V289H112ZM215 288H315V289H215ZM113 289H124V290H113ZM216 289H313V290H216ZM55 286H71V291H55ZM114 290H123V291H114ZM218 290H311V291H218ZM116 291H121V292H116ZM357 275H374V292H357ZM163 288H180V293H163ZM357 292H373V293H357ZM163 293H179V294H163ZM249 291H266V294H249ZM55 291H72V296H55ZM250 294H266V296H250ZM356 293H373V297H356ZM162 294H179V298H162ZM56 296H73V299H56ZM250 296H267V299H250ZM56 299H74V300H56ZM355 297H372V300H355ZM57 300H74V301H57ZM161 298H178V301H161ZM251 299H268V301H251ZM354 300H372V301H354ZM160 301H178V302H160ZM160 302H177V303H160ZM251 301H269V303H251ZM354 301H371V303H354ZM57 301H75V304H57ZM252 303H269V304H252ZM353 303H371V304H353ZM159 303H177V305H159ZM353 304H370V305H353ZM58 304H76V306H58ZM252 304H270V306H252ZM59 306H77V307H59ZM158 305H176V307H158ZM253 306H271V307H253ZM352 305H370V307H352ZM157 307H176V308H157ZM253 307H272V308H253ZM351 307H369V308H351ZM59 307H78V309H59ZM157 308H175V309H157ZM254 308H272V309H254ZM156 309H175V310H156ZM254 309H273V310H254ZM350 308H369V310H350ZM60 309H79V311H60ZM349 310H368V311H349ZM61 311H80V312H61ZM155 310H174V312H155ZM255 310H274V312H255ZM348 311H368V312H348ZM61 312H81V313H61ZM154 312H173V313H154ZM256 312H275V313H256ZM348 312H367V313H348ZM62 313H82V314H62ZM153 313H173V314H153ZM256 313H276V314H256ZM347 313H367V314H347ZM62 314H83V315H62ZM152 314H172V315H152ZM257 314H277V315H257ZM346 314H366V315H346ZM63 315H84V316H63ZM151 315H172V316H151ZM257 315H278V316H257ZM345 315H366V316H345ZM64 316H85V317H64ZM150 316H171V317H150ZM258 316H279V317H258ZM344 316H365V317H344ZM64 317H86V318H64ZM149 317H171V318H149ZM258 317H280V318H258ZM343 317H364V318H343ZM65 318H87V319H65ZM148 318H170V319H148ZM259 318H281V319H259ZM342 318H364V319H342ZM65 319H88V320H65ZM147 319H169V320H147ZM260 319H282V320H260ZM341 319H363V320H341ZM66 320H89V321H66ZM146 320H169V321H146ZM260 320H283V321H260ZM339 320H362V321H339ZM67 321H90V322H67ZM144 321H168V322H144ZM261 321H284V322H261ZM338 321H362V322H338ZM68 322H92V323H68ZM143 322H167V323H143ZM262 322H286V323H262ZM337 322H361V323H337ZM69 323H93V324H69ZM141 323H166V324H141ZM263 323H288V324H263ZM335 323H360V324H335ZM69 324H95V325H69ZM140 324H165V325H140ZM263 324H289V325H263ZM333 324H359V325H333ZM70 325H97V326H70ZM138 325H165V326H138ZM264 325H291V326H264ZM331 325H358V326H331ZM71 326H99V327H71ZM136 326H164V327H136ZM265 326H294V327H265ZM329 326H357V327H329ZM72 327H102V328H72ZM133 327H163V328H133ZM266 327H296V328H266ZM327 327H357V328H327ZM73 328H105V329H73ZM130 328H162V329H130ZM267 328H299V329H267ZM324 328H356V329H324ZM74 329H110V330H74ZM126 329H161V330H126ZM268 329H304V330H268ZM319 329H355V330H319ZM75 330H160V331H75ZM269 330H354V331H269ZM76 331H159V332H76ZM270 331H352V332H270ZM77 332H157V333H77ZM272 332H351V333H272ZM79 333H156V334H79ZM273 333H350V334H273ZM80 334H155V335H80ZM274 334H349V335H274ZM81 335H153V336H81ZM276 335H347V336H276ZM83 336H152V337H83ZM277 336H346V337H277ZM84 337H150V338H84ZM279 337H344V338H279ZM86 338H149V339H86ZM280 338H343V339H280ZM88 339H147V340H88ZM282 339H341V340H282ZM90 340H145V341H90ZM284 340H339V341H284ZM92 341H143V342H92ZM286 341H337V342H286ZM95 342H140V343H95ZM289 342H334V343H289ZM97 343H138V344H97ZM291 343H332V344H291ZM100 344H134V345H100ZM295 344H328V345H295ZM105 345H130V346H105ZM299 345H324V346H299ZM112 346H123V347H112ZM306 346H317V347H306Z"></path></svg>
